<svg width="114" height="89" viewBox="0 0 114 89" fill="none" xmlns="http://www.w3.org/2000/svg">
<path d="M56.9035 24.9431C53.3116 24.9431 48.0182 20.9749 48.0182 15.8729V9.07021C48.0182 3.96823 49.5306 0 56.9035 0C64.2764 0 65.7887 3.96823 65.7887 9.07021V15.8729C65.7887 20.9749 60.4956 24.9431 56.9035 24.9431Z" fill="#FCFCFC"/>
<path d="M71.6324 88.9999H112.138C113.839 88.9999 114.595 87.2995 113.461 85.9766C104.765 77.6625 88.5318 67.5224 80.5916 64.3099L71.6324 88.9999Z" fill="#FCFCFC"/>
<path d="M74.8937 32.1242L45.0429 51.6157C37.1029 46.8916 27.6013 40.4386 21.93 34.9586C20.7957 33.8248 21.5519 32.1242 23.2533 32.1242H74.8937Z" fill="#FCFCFC"/>
<path d="M1.89083 89H71.6492L91.4993 34.5785C91.8773 33.2557 91.1206 31.933 89.4195 32.1219H74.8626L44.8044 51.7741L23.2531 65.7575H23.2526C21.7404 66.7026 20.2282 67.6471 18.716 68.7808L18.527 68.9695C13.8008 72.182 9.4527 75.7725 5.48274 79.9295C3.7813 81.8191 2.07987 83.8979 0.378453 86.1654C-0.566781 87.2991 0.378459 89 1.89083 89Z" fill="#FD9A00"/>
</svg>
